<?xml version="1.0" encoding="UTF-8"?>
<svg id="Layer_1" xmlns="http://www.w3.org/2000/svg" version="1.1" viewBox="0 0 2000 531.66">
  <!-- Generator: Adobe Illustrator 29.4.0, SVG Export Plug-In . SVG Version: 2.1.0 Build 152)  -->
  <path d="M381.75,99.42c2.63-1.88,7.33-2.82,14.1-2.82,10.15,0,17.29,2.07,21.44,6.21,7.14,6.77,10.72,14.3,10.72,22.57v3.95c-.38,5.27-2.54,11-6.49,17.21s-16.08,23.6-36.39,52.18c-26.71,37.23-43.44,64.97-50.21,83.2-6.77,18.25-11.48,48.42-14.1,90.54-1.89,25.2-4.14,39.68-6.77,43.44-6.4,9.02-15.05,13.54-25.95,13.54s-18.62-4.13-24.26-12.41c-3.38-4.88-5.08-14.47-5.08-28.77,0-31.21,2.44-60.55,7.33-88,1.13-8.27,1.69-15.98,1.69-23.13v-5.08c-1.51-8.27-18.43-34.59-50.77-78.97-18.05-24.06-28.02-39.11-29.9-45.13-.76-3-1.13-5.45-1.13-7.33,0-6.77,1.97-12.97,5.92-18.62s9.11-9.21,15.51-10.72c3.75-.75,6.58-1.13,8.46-1.13,11.28,0,21.44,6.4,30.46,19.18,1.88,3.02,11.09,15.05,27.64,36.1,16.54,21.07,25.57,32.91,27.08,35.54l3.38,4.51,4.51-6.77c24.44-33.85,43.81-61.49,58.1-82.93,6.39-9.02,11.28-14.47,14.67-16.36Z"/>
  <path d="M646.87,209.98c10.9-7.14,19.74-10.72,26.51-10.72h.56c1.88,0,4.88,1.79,9.03,5.36,4.13,3.58,6.95,7.05,8.46,10.44,2.26,4.51,3.38,17.3,3.38,38.36,0,14.3-.56,25.48-1.69,33.56-1.13,8.09-4.51,24.54-10.15,49.36-7.53,32.35-11.85,52.66-12.97,60.92-1.13,7.15-4.42,12.79-9.87,16.92-5.46,4.14-11.76,6.21-18.9,6.21-9.4,0-17.49-3.57-24.26-10.72-4.51-5.26-6.77-11.47-6.77-18.62v-11.28l-9.59,4.51c-7.15,3.39-16.92,5.08-29.33,5.08s-22.56-1.69-29.33-5.08c-14.67-6.77-26.79-18.24-36.38-34.41-9.59-16.17-14.95-34.41-16.08-54.72v-9.03c0-36.1,14.29-60.92,42.87-74.46,7.14-3.39,20.87-5.08,41.18-5.08s35.35,1.69,46.26,5.08l17.49,5.64,9.59-7.33ZM603.44,271.47c-9.03-2.63-17.49-3.95-25.38-3.95-16.92,0-27.27,6.77-31.03,20.31-.76,3.01-1.13,5.27-1.13,6.77,0,7.15,2.44,13.54,7.33,19.18,4.88,5.64,10.34,9.02,16.36,10.15h2.82c9.03,0,19.55-6.01,31.59-18.05,4.88-4.88,7.8-8.36,8.74-10.44.93-2.06,1.41-5.54,1.41-10.44v-10.15l-10.72-3.39Z"/>
  <path d="M767.59,182.91c5.26-3.39,10.72-5.08,16.36-5.08,12.41,0,21.24,5.08,26.51,15.23,2.63,4.89,4.51,15.79,5.64,32.72l1.13,25.38,6.77-11.85c9.03-15.8,18.8-26.32,29.33-31.59,6.01-2.63,11.28-3.95,15.8-3.95.75,0,1.88.1,3.38.28,1.5.19,2.82.28,3.95.28,15.8,1.13,29.99,7.71,42.59,19.75,12.6,12.04,22.09,28.4,28.49,49.08,6.39,19.94,10.15,52.66,11.28,98.16.37,10.53.56,21.81.56,33.85,0,10.91-1.32,19.18-3.95,24.82-5.64,11.66-15.05,17.49-28.21,17.49-9.78,0-18.43-4.88-25.95-14.67-2.64-3.01-3.95-9.21-3.95-18.62v-16.36c0-44-2.45-76.15-7.33-96.46-1.51-7.14-3.76-14.19-6.77-21.15-3.01-6.95-5.27-10.44-6.77-10.44-5.27,0-11.28,20.5-18.05,61.49-5.27,30.84-10.25,52.09-14.95,63.74-4.71,11.66-11.76,20.12-21.15,25.38-5.27,3.01-10.72,4.51-16.36,4.51-7.9,0-14.1-2.26-18.62-6.77-10.91-10.52-19.37-31.87-25.38-64.03-6.02-32.15-9.03-71.92-9.03-119.31,0-18.42.85-30.65,2.54-36.67,1.69-6.01,5.73-11.09,12.13-15.23Z"/>
  <path d="M1032.15,182.91c5.26-3.39,10.72-5.08,16.36-5.08,12.41,0,21.24,5.08,26.51,15.23,2.63,4.89,4.51,15.79,5.64,32.72l1.13,25.38,6.77-11.85c9.03-15.8,18.8-26.32,29.33-31.59,6.01-2.63,11.28-3.95,15.8-3.95.75,0,1.88.1,3.38.28,1.5.19,2.82.28,3.95.28,15.8,1.13,29.99,7.71,42.59,19.75,12.6,12.04,22.09,28.4,28.49,49.08,6.39,19.94,10.15,52.66,11.28,98.16.37,10.53.56,21.81.56,33.85,0,10.91-1.32,19.18-3.95,24.82-5.64,11.66-15.05,17.49-28.21,17.49-9.78,0-18.43-4.88-25.95-14.67-2.64-3.01-3.95-9.21-3.95-18.62v-16.36c0-44-2.45-76.15-7.33-96.46-1.51-7.14-3.76-14.19-6.77-21.15-3.01-6.95-5.27-10.44-6.77-10.44-5.27,0-11.28,20.5-18.05,61.49-5.27,30.84-10.25,52.09-14.95,63.74-4.71,11.66-11.76,20.12-21.15,25.38-5.27,3.01-10.72,4.51-16.36,4.51-7.9,0-14.1-2.26-18.62-6.77-10.91-10.52-19.37-31.87-25.38-64.03-6.02-32.15-9.03-71.92-9.03-119.31,0-18.42.85-30.65,2.54-36.67,1.69-6.01,5.73-11.09,12.13-15.23Z"/>
  <path d="M1306.87,230.29c4.51-2.26,9.4-3.39,14.67-3.39,11.65,0,20.11,4.71,25.38,14.1,2.63,4.51,3.95,10.35,3.95,17.49,0,4.14-1.51,31.78-4.51,82.92-2.64,38.36-4.71,61.3-6.21,68.82-1.51,7.53-5.27,13.54-11.28,18.05-3.38,3.02-9.03,4.51-16.92,4.51-11.66,0-20.69-5.26-27.08-15.8-2.26-3.75-3.38-9.02-3.38-15.79,0-6.01.56-18.62,1.69-37.8.37-5.64,1.13-18.9,2.26-39.77,1.13-20.87,2.06-35.06,2.82-42.59,1.5-19.55,3.19-32.06,5.08-37.51,1.88-5.45,6.39-9.87,13.54-13.26ZM1319.28,133.83c.37,0,1.22-.09,2.54-.28,1.31-.19,2.34-.28,3.1-.28,9.4,0,17.01,3.1,22.85,9.31,5.83,6.21,8.74,14.2,8.74,23.97,0,3.02-.76,7.9-2.26,14.67-2.26,7.53-6.12,13.35-11.56,17.49-5.46,4.14-11.57,6.21-18.33,6.21-9.78,0-18.05-3.95-24.82-11.85-4.51-4.88-6.77-11.65-6.77-20.31,0-9.4,2.63-18.05,7.9-25.95,5.26-7.9,11.47-12.22,18.62-12.97Z"/>
  <path d="M1476.66,180.09c7.52-3.76,14.47-5.64,20.87-5.64h9.02c18.05.38,35.35,7.71,51.9,22,13.54,11.28,20.87,22,22,32.15v3.39c0,8.65-2.63,15.79-7.9,21.44-5.27,5.64-12.04,8.46-20.31,8.46-4.89,0-10.07-1.03-15.51-3.1-5.46-2.06-8.56-4.23-9.31-6.49-.76-2.63-3.67-5.16-8.74-7.62-5.08-2.44-9.5-3.67-13.26-3.67-7.53,0-14.58,5.55-21.15,16.64-6.58,11.1-10.44,23.79-11.56,38.08,0,1.13-.1,2.45-.28,3.95-.19,1.51-.28,2.82-.28,3.95,0,14.67,3.38,26.8,10.15,36.38,6.77,9.59,15.6,15.14,26.51,16.64h2.26c1.88,0,3.57-.93,5.08-2.82,1.5-1.88,3.95-6.21,7.33-12.97,6.01-11.28,12.03-18.62,18.05-22,4.88-2.63,9.96-3.95,15.23-3.95,7.9,0,14.67,3.02,20.31,9.02,5.64,6.02,8.46,13.54,8.46,22.57s-4.89,21.91-14.67,37.51c-9.78,15.61-18.99,25.67-27.64,30.18-4.14,1.89-11.85,3.58-23.13,5.08-7.53.76-13.17,1.13-16.92,1.13-21.44,0-39.4-5.83-53.87-17.49-14.48-11.65-24.73-28.58-30.74-50.77-2.63-10.52-3.95-23.5-3.95-38.92s1.31-28.58,3.95-41.74c10.9-47.01,30.27-77.47,58.1-91.38Z"/>
  <path d="M1662.25,85.31c1.5-.75,4.7-1.13,9.59-1.13,8.65,0,15.04,1.32,19.18,3.95,6.39,3.76,10.15,9.31,11.28,16.64,1.13,7.33,1.69,30.18,1.69,68.54,0,44,.75,66,2.26,66l.56-.56c6.77-9.03,22-22,45.69-38.92,10.9-7.52,19.55-11.28,25.95-11.28,9.4,0,16.73,2.63,22,7.9,5.26,5.27,7.9,12.41,7.9,21.44v3.95c-.76,6.4-2.45,11.2-5.08,14.39-2.63,3.2-9.59,8.94-20.87,17.2-4.14,3.02-11.48,8.84-22,17.49l-11.85,10.15,10.72,10.72c7.52,7.53,15.42,19.18,23.69,34.98,7.14,13.92,13.91,24.45,20.31,31.59,7.14,7.9,10.72,15.79,10.72,23.69,0,4.51-1.32,9.97-3.95,16.36-1.51,3.76-5.08,7.05-10.72,9.87-5.64,2.82-11.47,4.23-17.49,4.23-4.89,0-9.41-1.13-13.54-3.39-11.66-6.77-22.94-21.06-33.85-42.87-9.78-19.18-17.87-30.46-24.26-33.85l-6.21-3.39,1.13,18.62c.37,9.03,1.5,21.44,3.39,37.23.37,3.39.56,7.71.56,12.97,0,11.66-3.76,20.5-11.28,26.51-5.64,4.51-11.85,6.77-18.62,6.77-9.4,0-17.12-3.57-23.13-10.72-3.76-3.76-6.21-8.36-7.33-13.82-1.13-5.45-2.45-19.65-3.95-42.59-1.51-18.05-2.26-60.73-2.26-128.05,0-81.23.94-125.04,2.82-131.44,1.13-3.76,3.47-7.62,7.05-11.57,3.57-3.95,6.86-6.49,9.87-7.62Z"/>
</svg>